<?xml version="1.0" standalone="no"?>
<svg viewBox="0 0 200 200" xmlns="http://www.w3.org/2000/svg">
  <path fill="#00FF94" d="M38.6,-64.4C52.4,-58.9,67.5,-53.3,72.9,-42.6C78.2,-31.8,73.8,-15.9,73.5,-0.2C73.2,15.6,77.2,31.2,72.5,43C67.7,54.9,54.4,62.9,40.8,64.8C27.3,66.7,13.7,62.4,-1.4,64.7C-16.4,67.1,-32.8,76.1,-42,71.7C-51.2,67.4,-53.2,49.6,-59,35.5C-64.8,21.3,-74.3,10.6,-75.8,-0.9C-77.4,-12.4,-71,-24.8,-61.5,-32.6C-52,-40.4,-39.5,-43.6,-28.8,-50.8C-18,-58,-9,-69.1,1.7,-72.1C12.4,-75.1,24.8,-69.8,38.6,-64.4Z" transform="translate(100 100)" />
</svg>
